<svg preserveAspectRatio="none" width="100%" height="100%" overflow="visible" style="display: block;" viewBox="0 0 12.222 12.222" fill="none" xmlns="http://www.w3.org/2000/svg">
<g id="Vector">
<path d="M0.799996 12.2086L4.34535 11.4995C4.47477 11.4736 4.59363 11.41 4.68695 11.3167L9.13246 6.87116C9.39353 6.61009 9.39353 6.18681 9.13246 5.92574L6.29618 3.08945C6.03511 2.82838 5.61182 2.82838 5.35075 3.08946L0.905245 7.535C0.81192 7.62832 0.748308 7.74718 0.722424 7.8766L0.0133537 11.422C-0.0802009 11.8897 0.33222 12.3022 0.799996 12.2086Z" fill="white"/>
<path d="M11.6345 1.53284L10.6891 0.587413C9.9059 -0.195804 8.63605 -0.195804 7.85283 0.587412L7.19415 1.24609C6.93308 1.50717 6.93308 1.93045 7.19415 2.19152L10.0304 5.0278C10.2915 5.28887 10.7148 5.28887 10.9759 5.0278L11.6345 4.36912C12.4178 3.58591 12.4178 2.31606 11.6345 1.53284Z" fill="white"/>
</g>
</svg>
